<svg width="22" height="19" viewBox="0 0 22 19" fill="none" xmlns="http://www.w3.org/2000/svg">
<path d="M14.1429 0.928711L17.2857 6.42871M4.71428 6.42871L7.85714 0.928711M19.2971 6.42871H2.70285C2.46717 6.42394 2.23343 6.47225 2.01895 6.57007C1.80447 6.6679 1.61475 6.81272 1.46383 6.99381C1.31292 7.17491 1.20468 7.38764 1.14714 7.61624C1.0896 7.84484 1.08423 8.08346 1.13142 8.31442L2.86 16.9573C2.93346 17.3176 3.13095 17.6407 3.41808 17.8704C3.70521 18.1001 4.06379 18.2218 4.43142 18.2144H17.5686C17.9362 18.2218 18.2948 18.1001 18.5819 17.8704C18.869 17.6407 19.0665 17.3176 19.14 16.9573L20.8686 8.31442C20.9158 8.08346 20.9104 7.84484 20.8528 7.61624C20.7953 7.38764 20.6871 7.17491 20.5362 6.99381C20.3852 6.81272 20.1955 6.6679 19.981 6.57007C19.7666 6.47225 19.5328 6.42394 19.2971 6.42871Z" stroke="white" stroke-width="1.3" stroke-linecap="round" stroke-linejoin="round"/>
</svg>
