<svg width="22" height="19" viewBox="0 0 22 19" fill="none" xmlns="http://www.w3.org/2000/svg">
<path d="M14.1448 0.928711L17.2877 6.42871M4.71623 6.42871L7.85909 0.928711M19.2991 6.42871H2.70481C2.46912 6.42394 2.23538 6.47225 2.0209 6.57007C1.80642 6.6679 1.6167 6.81272 1.46579 6.99381C1.31487 7.17491 1.20664 7.38764 1.1491 7.61624C1.09155 7.84484 1.08618 8.08346 1.13338 8.31442L2.86195 16.9573C2.93542 17.3176 3.1329 17.6407 3.42003 17.8704C3.70716 18.1001 4.06575 18.2218 4.43338 18.2144H17.5705C17.9382 18.2218 18.2967 18.1001 18.5839 17.8704C18.871 17.6407 19.0685 17.3176 19.1419 16.9573L20.8705 8.31442C20.9177 8.08346 20.9123 7.84484 20.8548 7.61624C20.7973 7.38764 20.689 7.17491 20.5381 6.99381C20.3872 6.81272 20.1975 6.6679 19.983 6.57007C19.7685 6.47225 19.5348 6.42394 19.2991 6.42871Z" stroke="#1C1C1C" stroke-width="1.3" stroke-linecap="round" stroke-linejoin="round"/>
</svg>
