<svg width="16" height="16" viewBox="0 0 16 16" fill="none" xmlns="http://www.w3.org/2000/svg">
<rect width="16" height="16" fill="#F5F5F5"/>
<rect width="1440" height="1685" transform="translate(-899 -22)" fill="#FCFCFC"/>
<rect x="-889" y="-22" width="1420" height="104" rx="5" fill="white"/>
<g clip-path="url(#clip0_0_1)">
<rect x="-408" y="-12" width="436" height="40" rx="5" fill="white"/>
<path d="M6.61322 0C5.54906 4.95842e-06 4.50061 0.256814 3.55691 0.748621C2.61321 1.24043 1.80213 1.95271 1.19255 2.82497C0.58296 3.69724 0.192873 4.70373 0.055409 5.75897C-0.0820551 6.81422 0.0371642 7.88705 0.402944 8.88637C0.768723 9.8857 1.37026 10.782 2.15647 11.4991C2.94268 12.2163 3.89035 12.7331 4.919 13.0058C5.94764 13.2784 7.02689 13.2988 8.0651 13.0651C9.1033 12.8315 10.0698 12.3508 10.8825 11.6638C10.8629 11.9047 10.9447 12.1527 11.1296 12.3367L14.5429 15.75C14.703 15.9101 14.9201 16 15.1465 16C15.3728 16 15.5899 15.9101 15.75 15.75C15.9101 15.5899 16 15.3728 16 15.1465C16 14.9201 15.9101 14.703 15.75 14.5429L12.3367 11.1296C12.2492 11.0421 12.1437 10.9747 12.0275 10.932C11.9113 10.8893 11.7872 10.8724 11.6638 10.8825C12.4778 9.91955 12.9996 8.74395 13.1676 7.49429C13.3355 6.24462 13.1428 4.97297 12.6119 3.82924C12.0811 2.6855 11.2344 1.71735 10.1716 1.03891C9.10876 0.36046 7.87413 -4.96616e-06 6.61322 0ZM1.27995 6.61324C1.27995 5.91287 1.4179 5.21935 1.68593 4.57229C1.95395 3.92523 2.34679 3.3373 2.84203 2.84206C3.33727 2.34682 3.92521 1.95397 4.57227 1.68595C5.21933 1.41793 5.91285 1.27998 6.61322 1.27998C7.3136 1.27998 8.00711 1.41793 8.65418 1.68595C9.30124 1.95397 9.88917 2.34682 10.3844 2.84206C10.8797 3.3373 11.2725 3.92523 11.5405 4.57229C11.8085 5.21935 11.9465 5.91287 11.9465 6.61324C11.9465 8.02771 11.3846 9.38424 10.3844 10.3844C9.38423 11.3846 8.02769 11.9465 6.61322 11.9465C5.19875 11.9465 3.84222 11.3846 2.84203 10.3844C1.84185 9.38424 1.27995 8.02771 1.27995 6.61324Z" fill="#030303"/>
</g>
<rect x="-407.5" y="-11.5" width="435" height="39" rx="4.5" stroke="#BFBFBF"/>
<defs>
<clipPath id="clip0_0_1">
<rect x="-408" y="-12" width="436" height="40" rx="5" fill="white"/>
</clipPath>
</defs>
</svg>
