<svg width="23" height="12" viewBox="0 0 23 12" fill="none" xmlns="http://www.w3.org/2000/svg">
<path d="M21.9056 10.8373C21.88 10.7825 21.8563 10.7368 21.8342 10.7003C21.469 10.0432 20.7719 9.23631 19.7426 8.27995L19.7205 8.25819L19.7096 8.24698L19.6987 8.23642H19.6878C19.2206 7.79089 18.9248 7.49163 18.8009 7.338C18.5747 7.04642 18.5235 6.75068 18.6476 6.45142C18.7357 6.22513 19.064 5.74695 19.6334 5.01657C19.9327 4.62993 20.1699 4.31978 20.3453 4.0855C21.6082 2.40643 22.1556 1.33357 21.9878 0.865958L21.9219 0.756496C21.8781 0.690562 21.7648 0.63039 21.5823 0.575659C21.3999 0.520927 21.1662 0.512286 20.8817 0.548453L17.7278 0.570858C17.6548 0.563496 17.5818 0.565417 17.5085 0.575979C17.4355 0.587181 17.3882 0.598063 17.3661 0.608945C17.344 0.620148 17.3261 0.62911 17.3114 0.636151L17.2675 0.669118C17.231 0.690882 17.191 0.72929 17.1472 0.784341C17.1033 0.839072 17.0665 0.902765 17.0377 0.97606C16.6946 1.85944 16.3041 2.68073 15.8659 3.44024C15.5958 3.89282 15.3474 4.28554 15.1215 4.61744C14.8952 4.94999 14.7054 5.19452 14.5521 5.35103C14.3988 5.50787 14.2599 5.63429 14.136 5.72871C14.0118 5.82409 13.9168 5.86378 13.8515 5.84937C13.7855 5.83497 13.7234 5.82025 13.6652 5.80521C13.5631 5.73959 13.4805 5.65029 13.4187 5.53699C13.3566 5.42401 13.3147 5.28158 13.2926 5.11002C13.2709 4.93847 13.2577 4.7906 13.2545 4.66641C13.2507 4.54223 13.2526 4.36715 13.26 4.14087C13.2673 3.91458 13.2709 3.76159 13.2709 3.68093C13.2709 3.40376 13.2763 3.10257 13.2875 2.77739C13.2984 2.45252 13.3077 2.19519 13.3147 2.00539C13.3221 1.81591 13.3256 1.61491 13.3256 1.40303C13.3256 1.19178 13.3128 1.02535 13.2872 0.904686C13.2616 0.784341 13.2232 0.667838 13.1723 0.554214C13.1211 0.441231 13.0462 0.353533 12.9476 0.291761C12.849 0.229668 12.7267 0.180378 12.5808 0.143891C12.1935 0.0561926 11.7009 0.009143 11.1024 0.00146143C9.74438 -0.0126214 8.87188 0.0750765 8.48492 0.264555C8.33161 0.345212 8.1927 0.454354 8.06884 0.593262C7.93729 0.753935 7.91905 0.841953 8.01411 0.855716C8.45228 0.921649 8.76242 1.0788 8.94486 1.32685L9.01079 1.45808C9.06168 1.55346 9.11289 1.72117 9.1641 1.96186C9.21531 2.20287 9.24796 2.46917 9.26268 2.76138C9.29917 3.29429 9.29917 3.75039 9.26268 4.1303C9.22619 4.51022 9.19163 4.80564 9.15866 5.01689C9.12569 5.22877 9.0764 5.4 9.01079 5.53155C8.94486 5.66342 8.90133 5.74375 8.87924 5.77288C8.85716 5.80201 8.83923 5.82025 8.82451 5.82761C8.72945 5.86378 8.63119 5.88234 8.52877 5.88234C8.42635 5.88234 8.30248 5.83113 8.15622 5.72871C8.01027 5.62693 7.85855 5.4861 7.70172 5.30718C7.54457 5.12859 7.36789 4.8783 7.17041 4.55695C6.97325 4.23593 6.76873 3.85633 6.55717 3.41816L6.38209 3.10033C6.27263 2.89613 6.12284 2.59847 5.93304 2.20799C5.74324 1.81751 5.57521 1.43984 5.42926 1.07432C5.37069 0.921329 5.28331 0.804505 5.16648 0.723849L5.11175 0.690882C5.07527 0.661756 5.01669 0.63071 4.93636 0.598063C4.8557 0.565096 4.77216 0.541412 4.68447 0.526689L1.68385 0.548453C1.37723 0.548453 1.16919 0.618227 1.05973 0.756816L1.01588 0.822429C0.993792 0.859237 0.98291 0.917809 0.98291 0.997825C0.98291 1.07848 1.00499 1.17674 1.04884 1.29325C1.48701 2.3229 1.96327 3.31574 2.47794 4.27177C2.99292 5.22845 3.43973 5.99885 3.81965 6.58264C4.19925 7.16708 4.58621 7.71792 4.98053 8.23642C5.37485 8.75493 5.6357 9.08684 5.76341 9.23279C5.89111 9.37906 5.99129 9.48852 6.06459 9.56149L6.33824 9.82459C6.51332 9.99966 6.77097 10.2096 7.11024 10.4542C7.44983 10.699 7.82559 10.9397 8.23815 11.1765C8.6504 11.414 9.13081 11.607 9.67813 11.7571C10.2258 11.9069 10.7587 11.9671 11.2769 11.9377H12.5363C12.792 11.9159 12.9854 11.8359 13.1166 11.6966L13.1604 11.6419C13.1896 11.5984 13.2171 11.5305 13.2427 11.4396C13.268 11.3484 13.2811 11.2479 13.2811 11.1385C13.2734 10.8245 13.2974 10.5412 13.3522 10.2896C13.4069 10.0377 13.469 9.84795 13.5384 9.71992C13.6079 9.59254 13.686 9.48468 13.774 9.39698C13.8617 9.30928 13.9235 9.25679 13.9603 9.23823C13.9968 9.2203 14.0262 9.2075 14.048 9.19982C14.2231 9.14157 14.4292 9.19822 14.6667 9.36945C14.9038 9.54133 15.1266 9.75257 15.3346 10.0048C15.5427 10.2567 15.7927 10.5393 16.0849 10.8536C16.3768 11.1676 16.6322 11.4009 16.8514 11.5542L17.0707 11.6861C17.2166 11.7735 17.4064 11.8538 17.6401 11.9271C17.8737 11.9998 18.0782 12.0183 18.2533 11.9818L21.0568 11.9377C21.3343 11.9377 21.5497 11.8922 21.703 11.8007C21.8563 11.7101 21.9475 11.609 21.9766 11.4995C22.0058 11.39 22.0077 11.2665 21.9821 11.1273C21.9565 10.9887 21.9309 10.892 21.9056 10.8373Z" fill="white"/>
</svg>
