<svg width="59" height="16" viewBox="0 0 59 16" fill="none" xmlns="http://www.w3.org/2000/svg">
<path d="M5.58882 16.0002C8.46076 16.0002 10.789 13.6829 10.789 10.8243C10.789 7.96575 8.46076 5.64844 5.58882 5.64844C2.71686 5.64844 0.388672 7.96575 0.388672 10.8243C0.388672 13.6829 2.71686 16.0002 5.58882 16.0002Z" fill="white"/>
<path d="M14.6091 15.347C16.3445 15.347 17.7513 13.9467 17.7513 12.2194C17.7513 10.492 16.3445 9.0918 14.6091 9.0918C12.8736 9.0918 11.4668 10.492 11.4668 12.2194C11.4668 13.9467 12.8736 15.347 14.6091 15.347Z" fill="white"/>
<path d="M6.58315 4.97338C7.65709 4.97338 8.52766 4.10686 8.52766 3.03796C8.52766 1.96906 7.65709 1.10254 6.58315 1.10254C5.50925 1.10254 4.63867 1.96906 4.63867 3.03796C4.63867 4.10686 5.50925 4.97338 6.58315 4.97338Z" fill="white"/>
<path d="M13.3881 8.41641C15.7231 8.41641 17.616 6.53232 17.616 4.20821C17.616 1.88407 15.7231 0 13.3881 0C11.053 0 9.16016 1.88407 9.16016 4.20821C9.16016 6.53232 11.053 8.41641 13.3881 8.41641Z" fill="white"/>
<path d="M28.178 2.29273L23.8887 13.855H26.1938L27.0839 11.4401H31.638L32.524 13.855H34.8116L30.5382 2.29273H28.178ZM27.865 9.31814L29.3658 5.24954L30.858 9.31814H27.865Z" fill="white"/>
<path d="M54.8114 5.5863C54.0048 5.5863 53.2164 5.83303 52.5458 6.2953C51.8753 6.75753 51.3528 7.41458 51.0443 8.18325C50.7355 8.95195 50.655 9.7978 50.812 10.6139C50.9695 11.4299 51.3578 12.1795 51.9282 12.7678C52.4983 13.3562 53.2247 13.7568 54.0157 13.9192C54.8068 14.0815 55.6267 13.9982 56.3718 13.6798C57.1166 13.3614 57.7536 12.8222 58.2015 12.1303C58.6497 11.4386 58.8887 10.6252 58.8887 9.79317C58.8887 8.67742 58.4591 7.6074 57.6947 6.81848C56.9299 6.02952 55.8926 5.5863 54.8114 5.5863ZM54.8114 11.843C54.4184 11.843 54.0344 11.7228 53.7079 11.4977C53.3811 11.2725 53.1266 10.9524 52.9761 10.5779C52.8257 10.2035 52.7864 9.79142 52.8633 9.3939C52.9399 8.99638 53.1289 8.63121 53.4067 8.34462C53.6846 8.058 54.0384 7.86281 54.4237 7.78374C54.8091 7.70467 55.2084 7.74525 55.5715 7.90037C55.9342 8.05546 56.2447 8.31815 56.463 8.65514C56.681 8.99216 56.7975 9.38837 56.7975 9.79372C56.7981 10.0629 56.7469 10.3296 56.6474 10.5785C56.5476 10.8273 56.4015 11.0534 56.2168 11.2437C56.0324 11.4342 55.8131 11.5851 55.5718 11.6879C55.3309 11.7908 55.0723 11.8435 54.8114 11.843Z" fill="white"/>
<path d="M37.5583 10.8733L35.6964 5.73219H33.4977L36.4944 13.8552H38.6756L41.6188 5.73219H39.4202L37.5583 10.8733Z" fill="white"/>
<path d="M48.534 3.57353H46.4418V5.73213H45.2185V7.67166H46.4418V11.1295C46.4418 13.087 47.4881 13.9284 48.9597 13.9284C49.4588 13.9358 49.954 13.8361 50.4139 13.6355V11.6234C50.1637 11.7185 49.8998 11.769 49.6332 11.7725C48.9979 11.7725 48.534 11.5163 48.534 10.6383V7.67166H50.4139V5.73213H48.534V3.57353Z" fill="white"/>
<path d="M43.3389 5.14694C44.1811 5.14694 44.864 4.44247 44.864 3.57347C44.864 2.70446 44.1811 2 43.3389 2C42.4966 2 41.8137 2.70446 41.8137 3.57347C41.8137 4.44247 42.4966 5.14694 43.3389 5.14694Z" fill="white"/>
<path d="M44.3852 5.73219H42.2931V13.8552H44.3852V5.73219Z" fill="white"/>
</svg>
