<svg width="22" height="12" viewBox="0 0 22 12" fill="none" xmlns="http://www.w3.org/2000/svg">
<path d="M21.7938 10.8373C21.7682 10.7825 21.7445 10.7368 21.7224 10.7003C21.3572 10.0432 20.6601 9.23631 19.6308 8.27995L19.6087 8.25819L19.5978 8.24698L19.5869 8.23642H19.576C19.1087 7.79089 18.813 7.49163 18.6891 7.338C18.4628 7.04642 18.4116 6.75068 18.5358 6.45142C18.6238 6.22513 18.9522 5.74695 19.5216 5.01657C19.8209 4.62993 20.0581 4.31978 20.2334 4.0855C21.4964 2.40643 22.0437 1.33357 21.876 0.865958L21.8101 0.756496C21.7662 0.690562 21.6529 0.63039 21.4705 0.575659C21.2881 0.520927 21.0544 0.512286 20.7699 0.548453L17.616 0.570858C17.543 0.563496 17.47 0.565417 17.3967 0.575979C17.3237 0.587181 17.2764 0.598063 17.2543 0.608945C17.2322 0.620148 17.2143 0.62911 17.1995 0.636151L17.1557 0.669118C17.1192 0.690882 17.0792 0.72929 17.0354 0.784341C16.9915 0.839072 16.9547 0.902765 16.9259 0.97606C16.5828 1.85944 16.1923 2.68073 15.7541 3.44024C15.484 3.89282 15.2356 4.28554 15.0097 4.61744C14.7834 4.94999 14.5936 5.19452 14.4403 5.35103C14.287 5.50787 14.148 5.63429 14.0242 5.72871C13.9 5.82409 13.8049 5.86378 13.7396 5.84937C13.6737 5.83497 13.6116 5.82025 13.5534 5.80521C13.4513 5.73959 13.3687 5.65029 13.3069 5.53699C13.2448 5.42401 13.2029 5.28158 13.1808 5.11002C13.159 4.93847 13.1459 4.7906 13.1427 4.66641C13.1389 4.54223 13.1408 4.36715 13.1482 4.14087C13.1555 3.91458 13.159 3.76159 13.159 3.68093C13.159 3.40376 13.1645 3.10257 13.1757 2.77739C13.1866 2.45252 13.1959 2.19519 13.2029 2.00539C13.2103 1.81591 13.2138 1.61491 13.2138 1.40303C13.2138 1.19178 13.201 1.02535 13.1754 0.904686C13.1498 0.784341 13.1114 0.667838 13.0605 0.554214C13.0093 0.441231 12.9344 0.353533 12.8358 0.291761C12.7372 0.229668 12.6149 0.180378 12.469 0.143891C12.0817 0.0561926 11.5891 0.009143 10.9906 0.00146143C9.63256 -0.0126214 8.76006 0.0750765 8.37311 0.264555C8.21979 0.345212 8.08089 0.454354 7.95702 0.593262C7.82547 0.753935 7.80723 0.841953 7.90229 0.855716C8.34046 0.921649 8.6506 1.0788 8.83304 1.32685L8.89897 1.45808C8.94986 1.55346 9.00107 1.72117 9.05228 1.96186C9.10349 2.20287 9.13614 2.46917 9.15086 2.76138C9.18735 3.29429 9.18735 3.75039 9.15086 4.1303C9.11438 4.51022 9.07981 4.80564 9.04684 5.01689C9.01388 5.22877 8.96459 5.4 8.89897 5.53155C8.83304 5.66342 8.78951 5.74375 8.76743 5.77288C8.74534 5.80201 8.72742 5.82025 8.71269 5.82761C8.61764 5.86378 8.51938 5.88234 8.41695 5.88234C8.31453 5.88234 8.19067 5.83113 8.0444 5.72871C7.89845 5.62693 7.74674 5.4861 7.58991 5.30718C7.43275 5.12859 7.25608 4.8783 7.0586 4.55695C6.86144 4.23593 6.65692 3.85633 6.44535 3.41816L6.27028 3.10033C6.16081 2.89613 6.01102 2.59847 5.82122 2.20799C5.63143 1.81751 5.46339 1.43984 5.31744 1.07432C5.25887 0.921329 5.17149 0.804505 5.05467 0.723849L4.99994 0.690882C4.96345 0.661756 4.90488 0.63071 4.82454 0.598063C4.74388 0.565096 4.66035 0.541412 4.57265 0.526689L1.57204 0.548453C1.26541 0.548453 1.05737 0.618227 0.947909 0.756816L0.90406 0.822429C0.881976 0.859237 0.871094 0.917809 0.871094 0.997825C0.871094 1.07848 0.893178 1.17674 0.937027 1.29325C1.3752 2.3229 1.85145 3.31574 2.36612 4.27177C2.8811 5.22845 3.32792 5.99885 3.70783 6.58264C4.08743 7.16708 4.47439 7.71792 4.86871 8.23642C5.26303 8.75493 5.52388 9.08684 5.65159 9.23279C5.7793 9.37906 5.87948 9.48852 5.95277 9.56149L6.22643 9.82459C6.4015 9.99966 6.65916 10.2096 6.99842 10.4542C7.33801 10.699 7.71377 10.9397 8.12633 11.1765C8.53858 11.414 9.019 11.607 9.56631 11.7571C10.1139 11.9069 10.6468 11.9671 11.165 11.9377H12.4245C12.6802 11.9159 12.8735 11.8359 13.0048 11.6966L13.0486 11.6419C13.0777 11.5984 13.1053 11.5305 13.1309 11.4396C13.1562 11.3484 13.1693 11.2479 13.1693 11.1385C13.1616 10.8245 13.1856 10.5412 13.2403 10.2896C13.2951 10.0377 13.3572 9.84795 13.4266 9.71992C13.4961 9.59254 13.5742 9.48468 13.6622 9.39698C13.7499 9.30928 13.8117 9.25679 13.8485 9.23823C13.885 9.2203 13.9144 9.2075 13.9362 9.19982C14.1112 9.14157 14.3174 9.19822 14.5548 9.36945C14.792 9.54133 15.0148 9.75257 15.2228 10.0048C15.4309 10.2567 15.6808 10.5393 15.9731 10.8536C16.265 11.1676 16.5204 11.4009 16.7396 11.5542L16.9589 11.6861C17.1048 11.7735 17.2946 11.8538 17.5283 11.9271C17.7619 11.9998 17.9664 12.0183 18.1415 11.9818L20.945 11.9377C21.2224 11.9377 21.4379 11.8922 21.5912 11.8007C21.7445 11.7101 21.8357 11.609 21.8648 11.4995C21.8939 11.39 21.8959 11.2665 21.8703 11.1273C21.8447 10.9887 21.8191 10.892 21.7938 10.8373Z" fill="white"/>
</svg>
