<svg width="30" height="30" viewBox="0 0 30 30" fill="none" xmlns="http://www.w3.org/2000/svg">
<path fill-rule="evenodd" clip-rule="evenodd" d="M21.0939 8.75966V2.76152C21.0939 2.34099 20.7528 2 20.3322 2H15.1885V7.79105C15.1885 8.33813 14.605 8.75946 14.0344 8.44386L11.5469 7.18465L9.00931 8.46925C8.49802 8.72752 7.90676 8.34488 7.90716 7.79105L7.90577 2H2.76168C2.34106 2 2 2.34099 2 2.76152V20.3283C2 20.7488 2.34106 21.0898 2.76168 21.0898H12.6939C12.2285 19.8569 11.9477 18.6311 11.9477 17.5385C11.9477 12.5506 16.0968 8.55951 21.0939 8.75966Z" fill="#2168EA"/>
<path fill-rule="evenodd" clip-rule="evenodd" d="M11.889 5.65486L13.6647 6.55385V2H9.42871V6.55385L11.2033 5.65565C11.4112 5.55032 11.6648 5.54199 11.889 5.65486Z" fill="#2168EA"/>
<path fill-rule="evenodd" clip-rule="evenodd" d="M20.7357 10.2754C16.7239 10.2754 13.4712 13.5274 13.4712 17.5383C13.4712 19.4549 14.5565 21.9832 15.941 24.0484C17.4286 26.2675 19.3329 27.9998 20.7357 27.9998C22.1384 27.9998 24.0427 26.2675 25.5303 24.0484C26.9148 21.9832 28.0001 19.4549 28.0001 17.5383C28.0003 13.5274 24.7476 10.2754 20.7357 10.2754ZM20.7357 20.3336C19.1919 20.3336 17.9399 19.082 17.9399 17.5383C17.9399 15.9948 19.1919 14.7433 20.7357 14.7433C22.2795 14.7433 23.5314 15.9948 23.5314 17.5383C23.5314 19.082 22.2797 20.3336 20.7357 20.3336Z" fill="#2168EA"/>
<path fill-rule="evenodd" clip-rule="evenodd" d="M22.0074 17.5385C22.0074 18.2411 21.4379 18.8106 20.7353 18.8106C20.0329 18.8106 19.4634 18.2411 19.4634 17.5385C19.4634 16.8361 20.0329 16.2666 20.7353 16.2666C21.4379 16.2666 22.0074 16.8361 22.0074 17.5385Z" fill="#2168EA"/>
</svg>
