<svg width="30" height="30" viewBox="0 0 30 30" fill="none" xmlns="http://www.w3.org/2000/svg">
<g clip-path="url(#clip0_273_7215)">
<g clip-path="url(#clip1_273_7215)">
<path d="M24.7057 10.7652C24.7057 12.063 24.4546 13.348 23.9669 14.547C23.4791 15.746 22.7642 16.8354 21.8629 17.7531C20.9616 18.6707 19.8917 19.3987 18.7141 19.8953C17.5365 20.392 16.2744 20.6476 14.9998 20.6476C13.7252 20.6476 12.4631 20.392 11.2855 19.8953C10.108 19.3987 9.038 18.6707 8.13673 17.7531C7.23546 16.8354 6.52053 15.746 6.03276 14.547C5.54499 13.348 5.29395 12.063 5.29395 10.7652C5.29395 8.14422 6.31653 5.6306 8.13673 3.77729C9.95693 1.92399 12.4257 0.882812 14.9998 0.882812C17.574 0.882812 20.0427 1.92399 21.8629 3.77729C23.6831 5.6306 24.7057 8.14422 24.7057 10.7652Z" fill="#2168EA" stroke="#2168EA" stroke-width="1.5"/>
<path d="M15.1025 5.7832C15.6061 5.82439 15.9349 6.16369 16.1416 6.43848C16.3631 6.73293 16.5894 7.15324 16.8408 7.61328H16.8418L16.9775 7.8623L17.124 8.11719C17.1432 8.12275 17.1682 8.13029 17.2021 8.13867L17.3818 8.18066L17.3877 8.18262L17.6475 8.24316L18.3408 8.40918C18.557 8.46556 18.7547 8.5251 18.9238 8.59277C19.2346 8.71718 19.5914 8.92517 19.7822 9.32324L19.8535 9.50586L19.8955 9.69336C19.9608 10.1232 19.7942 10.4971 19.6191 10.7803C19.5217 10.9379 19.3963 11.107 19.2539 11.2861L18.7852 11.8525L18.6055 12.0674H18.6045C18.5536 12.128 18.5142 12.1746 18.4805 12.2158C18.447 12.2568 18.4256 12.2845 18.4111 12.3047C18.4111 12.3081 18.4111 12.3122 18.4111 12.3164C18.4124 12.3795 18.4199 12.4651 18.4355 12.6338H18.4346L18.4629 12.917V12.9189L18.5283 13.6689C18.5444 13.9012 18.552 14.1137 18.5439 14.2998C18.5279 14.6702 18.4439 15.1598 18.0156 15.4912L18.0146 15.4922C17.5687 15.8357 17.0673 15.7698 16.708 15.665C16.5336 15.6142 16.3408 15.5386 16.1348 15.4492L15.4814 15.1494L15.2363 15.0352L15.0664 14.9561C15.0392 14.9439 15.0174 14.9349 15 14.9277C14.9826 14.9349 14.9609 14.9439 14.9336 14.9561C14.8872 14.9768 14.8337 15.0011 14.7646 15.0332L14.7656 15.0342L14.5186 15.1494C14.0631 15.3635 13.6405 15.5633 13.291 15.665C12.9308 15.7698 12.4306 15.8351 11.9854 15.4922C11.5553 15.1608 11.471 14.6705 11.4551 14.2998C11.4392 13.9275 11.4867 13.4488 11.5371 12.9189V12.917L11.5645 12.6309C11.5799 12.4641 11.5876 12.3791 11.5889 12.3164C11.5889 12.3126 11.5889 12.3088 11.5889 12.3057L11.5879 12.3047C11.5734 12.2845 11.5518 12.2566 11.5186 12.2158L11.3945 12.0674L11.2139 11.8525V11.8516C10.8814 11.4559 10.5756 11.0961 10.3809 10.7812C10.1803 10.4571 9.9913 10.0154 10.1465 9.50684V9.50586L10.2178 9.32324C10.4086 8.92534 10.7645 8.71719 11.0752 8.59277C11.4134 8.45737 11.8669 8.35506 12.3525 8.24316L12.6123 8.18262L12.6172 8.18066L12.7988 8.13867C12.8318 8.13061 12.8562 8.12353 12.875 8.11816C12.906 8.06935 12.9473 7.99795 13.0215 7.8623L13.1582 7.61328C13.4097 7.15311 13.6368 6.733 13.8584 6.43848C14.0789 6.14547 14.4381 5.7793 15 5.7793L15.1025 5.7832Z" fill="#F3F2F2" stroke="#2168EA" stroke-width="1.5"/>
<path d="M8.55321 19.2354L7.66998 22.5149C6.79922 25.7507 6.36384 27.3685 6.94481 28.2537C7.14863 28.5643 7.42178 28.8128 7.7393 28.978C8.64334 29.4467 10.041 28.7055 12.8349 27.2231C13.7639 26.729 14.2298 26.4834 14.7234 26.4297C14.9069 26.411 15.0917 26.411 15.2752 26.4297C15.7688 26.4834 16.2333 26.7304 17.1637 27.2231C19.9576 28.7055 21.3553 29.4467 22.2593 28.978C22.5768 28.8128 22.85 28.5643 23.0538 28.2537C23.6361 27.3685 23.1994 25.7507 22.3286 22.5149L21.4454 19.2354" fill="#2168EA"/>
<path d="M8.55321 19.2354L7.66998 22.5149C6.79922 25.7507 6.36384 27.3685 6.94481 28.2537C7.14863 28.5643 7.42178 28.8128 7.7393 28.978C8.64334 29.4467 10.041 28.7055 12.8349 27.2231C13.7639 26.729 14.2298 26.4834 14.7234 26.4297C14.9069 26.411 15.0917 26.411 15.2752 26.4297C15.7688 26.4834 16.2333 26.7304 17.1637 27.2231C19.9576 28.7055 21.3553 29.4467 22.2593 28.978C22.5768 28.8128 22.85 28.5643 23.0538 28.2537C23.6361 27.3685 23.1994 25.7507 22.3286 22.5149L21.4454 19.2354" stroke="#2168EA" stroke-width="1.5" stroke-linecap="round"/>
</g>
</g>
<defs>
<clipPath id="clip0_273_7215">
<rect width="30" height="30" fill="white"/>
</clipPath>
<clipPath id="clip1_273_7215">
<rect width="30" height="30" fill="white"/>
</clipPath>
</defs>
</svg>
