<svg width="24" height="26" viewBox="0 0 24 26" fill="none" xmlns="http://www.w3.org/2000/svg">
<path fill-rule="evenodd" clip-rule="evenodd" d="M2.215 1.965C0.75 3.42875 0.75 5.78625 0.75 10.5V15.5C0.75 20.2137 0.75 22.5712 2.215 24.035C3.68 25.4987 6.03625 25.5 10.75 25.5H13.25C17.9637 25.5 20.3212 25.5 21.785 24.035C23.2487 22.57 23.25 20.2137 23.25 15.5V10.5C23.25 5.78625 23.25 3.42875 21.785 1.965C20.32 0.50125 17.9637 0.5 13.25 0.5H10.75C6.03625 0.5 3.67875 0.5 2.215 1.965ZM6.0625 8C6.0625 7.75136 6.16127 7.5129 6.33709 7.33709C6.5129 7.16127 6.75136 7.0625 7 7.0625H17C17.2486 7.0625 17.4871 7.16127 17.6629 7.33709C17.8387 7.5129 17.9375 7.75136 17.9375 8C17.9375 8.24864 17.8387 8.4871 17.6629 8.66291C17.4871 8.83873 17.2486 8.9375 17 8.9375H7C6.75136 8.9375 6.5129 8.83873 6.33709 8.66291C6.16127 8.4871 6.0625 8.24864 6.0625 8ZM6.0625 13C6.0625 12.7514 6.16127 12.5129 6.33709 12.3371C6.5129 12.1613 6.75136 12.0625 7 12.0625H17C17.2486 12.0625 17.4871 12.1613 17.6629 12.3371C17.8387 12.5129 17.9375 12.7514 17.9375 13C17.9375 13.2486 17.8387 13.4871 17.6629 13.6629C17.4871 13.8387 17.2486 13.9375 17 13.9375H7C6.75136 13.9375 6.5129 13.8387 6.33709 13.6629C6.16127 13.4871 6.0625 13.2486 6.0625 13ZM7 17.0625C6.75136 17.0625 6.5129 17.1613 6.33709 17.3371C6.16127 17.5129 6.0625 17.7514 6.0625 18C6.0625 18.2486 6.16127 18.4871 6.33709 18.6629C6.5129 18.8387 6.75136 18.9375 7 18.9375H13.25C13.4986 18.9375 13.7371 18.8387 13.9129 18.6629C14.0887 18.4871 14.1875 18.2486 14.1875 18C14.1875 17.7514 14.0887 17.5129 13.9129 17.3371C13.7371 17.1613 13.4986 17.0625 13.25 17.0625H7Z" fill="#2168EA"/>
</svg>
