<svg width="30" height="30" viewBox="0 0 30 30" fill="none" xmlns="http://www.w3.org/2000/svg">
<path d="M30 15.0166L27.4324 11.672L28.0068 7.5166L24.0878 5.96255L22.5338 2.04363L18.3784 2.61795L15 0.0166016L11.6554 2.58417L7.5 2.00985L5.94595 5.92876L2.02703 7.48282L2.60135 11.6382L0 15.0166L2.56757 18.3612L1.99324 22.5166L5.91216 24.0707L7.46622 27.9896L11.6216 27.4153L14.9662 29.9828L18.3108 27.4153L22.4662 27.9896L24.0203 24.0707L27.9392 22.4828L27.3649 18.3274L30 15.0166ZM13.7838 19.8815L8.78378 15.7598L9.86486 14.4423L13.5811 17.4828L19.9324 10.1517L21.2162 11.2666L13.7838 19.8815Z" fill="#2168EA"/>
</svg>
