<svg width="30" height="26" viewBox="0 0 30 26" fill="none" xmlns="http://www.w3.org/2000/svg">
<path d="M28.7285 8.88189H22.5047L19.0135 0.887771C18.8192 0.442986 18.3011 0.239725 17.8563 0.43408C17.4115 0.628318 17.2083 1.14646 17.4026 1.59131L20.5866 8.88195H9.41347L12.5975 1.59131C12.7917 1.14646 12.5886 0.628377 12.1438 0.43408C11.699 0.239725 11.1808 0.442869 10.9866 0.887771L7.49534 8.88189H1.27157C0.457413 8.88189 -0.146806 9.61894 0.0313189 10.3948L3.30876 24.67C3.4389 25.2368 3.95417 25.6397 4.54901 25.6397H25.451C26.0459 25.6397 26.5612 25.2368 26.6913 24.67L29.9687 10.3948C30.1469 9.619 29.5426 8.88189 28.7285 8.88189ZM7.66069 11.5774C7.54327 11.5774 7.42392 11.5538 7.30937 11.5037C6.86452 11.3095 6.66138 10.7914 6.85567 10.3465L7.51591 8.83467H9.43403L8.46653 11.05C8.32233 11.3804 7.99948 11.5774 7.66069 11.5774ZM10.6055 20.9522C10.6055 21.4376 10.212 21.8311 9.72659 21.8311C9.2412 21.8311 8.84769 21.4376 8.84769 20.9522V14.5069C8.84769 14.0215 9.2412 13.628 9.72659 13.628C10.212 13.628 10.6055 14.0215 10.6055 14.5069V20.9522ZM15.8789 20.9522C15.8789 21.4376 15.4854 21.8311 15 21.8311C14.5146 21.8311 14.1211 21.4376 14.1211 20.9522V14.5069C14.1211 14.0215 14.5146 13.628 15 13.628C15.4854 13.628 15.8789 14.0215 15.8789 14.5069V20.9522ZM21.1524 20.9522C21.1524 21.4376 20.7589 21.8311 20.2735 21.8311C19.7881 21.8311 19.3946 21.4376 19.3946 20.9522V14.5069C19.3946 14.0215 19.7881 13.628 20.2735 13.628C20.7589 13.628 21.1524 14.0215 21.1524 14.5069V20.9522ZM22.6906 11.5037C22.5761 11.5538 22.4568 11.5774 22.3394 11.5774C22.0006 11.5774 21.6777 11.3804 21.5335 11.05L20.566 8.83473H22.4841L23.1443 10.3466C23.3386 10.7914 23.1355 11.3095 22.6906 11.5037Z" fill="#2168EA"/>
</svg>
