<svg width="28" height="22" viewBox="0 0 28 22" fill="none" xmlns="http://www.w3.org/2000/svg">
<path d="M-0.000488281 9.2998V16.7139C-0.00043869 17.986 0.505329 19.2059 1.40479 20.1055C2.30446 21.0051 3.52503 21.5107 4.79736 21.5107H16.4653C16.1656 20.7312 15.9995 19.8851 15.9995 19C15.9995 15.1342 19.1337 12.0003 22.9995 12C24.9133 12 26.648 12.7681 27.9116 14.0127V9.2998H-0.000488281ZM7.8501 16.2773C8.08133 16.2774 8.30277 16.3697 8.46631 16.5332C8.6298 16.6967 8.72207 16.9182 8.72217 17.1494C8.72217 17.3807 8.62989 17.603 8.46631 17.7666C8.30278 17.93 8.08128 18.0224 7.8501 18.0225H4.36084C4.12967 18.0224 3.90815 17.93 3.74463 17.7666C3.58105 17.603 3.48877 17.3807 3.48877 17.1494C3.48887 16.9182 3.58114 16.6967 3.74463 16.5332C3.90816 16.3697 4.12962 16.2774 4.36084 16.2773H7.8501ZM4.79736 0.577148C3.52503 0.577148 2.30446 1.08274 1.40479 1.98242C0.505306 2.88197 -0.000364304 4.10192 -0.000488281 5.37402V7.55469H27.9116V5.37402C27.9115 4.10186 27.4059 2.88199 26.5063 1.98242C25.6068 1.08286 24.3869 0.577273 23.1147 0.577148H4.79736Z" fill="#2168EA"/>
</svg>
