<svg width="204" height="27" viewBox="0 0 204 27" fill="none" xmlns="http://www.w3.org/2000/svg">
<path fill-rule="evenodd" clip-rule="evenodd" d="M40.8516 24.2241L33.3333 7.21365L25.9136 24.2241H19.8188L30.3383 0.409456H35.9093L46.4596 24.2241H40.8516Z" fill="white"/>
<path fill-rule="evenodd" clip-rule="evenodd" d="M63.7579 18.9193C62.4081 19.6187 60.8976 19.969 59.3701 19.9369C54.7051 19.9369 51.4697 16.7756 51.4697 12.3198C51.4697 7.86396 54.7051 4.6967 59.4441 4.6967C60.6306 4.67579 61.8079 4.90484 62.8957 5.36825C63.9836 5.83166 64.9565 6.51857 65.7484 7.38225L69.3658 4.11864C66.9994 1.42707 63.4744 0 59.1606 0C51.3958 0 45.757 5.13626 45.757 12.3198C45.757 19.5033 51.3958 24.6336 59.062 24.6336C62.5907 24.6664 66.0404 23.6131 68.9221 21.6229V11.9405H63.764L63.7579 18.9193Z" fill="white"/>
<path fill-rule="evenodd" clip-rule="evenodd" d="M21.0328 0.409456L13.5145 17.4199L6.09478 0.409456H0L10.5195 24.2241H16.0905L26.6408 0.409456H21.0328Z" fill="white"/>
<path fill-rule="evenodd" clip-rule="evenodd" d="M37.9244 27H28.6682L33.3271 16.4565L37.9244 27Z" fill="white"/>
<path fill-rule="evenodd" clip-rule="evenodd" d="M86.8305 24.6336H92.4693V5.31088H100.271V0.818912H79.0287V5.31088H86.8305V24.6336ZM124.891 24.6336L119.424 16.9804C120.955 16.3898 122.261 15.3487 123.159 14.0012C124.058 12.6538 124.506 11.0667 124.441 9.45963C124.441 4.11864 120.367 0.818912 113.853 0.818912H103.303V24.6336H108.942V18.01H114.131L118.833 24.6336H124.891ZM118.728 9.45963C118.728 12.0428 116.984 13.6084 113.539 13.6084H108.942V5.31088H113.539C116.984 5.31088 118.728 6.84032 118.728 9.45963ZM147.107 24.6336H153.029L142.127 0.818912H136.581L125.716 24.6336H131.497L133.66 19.5335H144.974L147.131 24.6336H147.107ZM135.441 15.3486L139.311 6.22614L143.175 15.3486H135.441ZM166.667 24.6336C174.641 24.6336 180.113 19.9369 180.113 12.7232C180.113 5.50959 174.616 0.818912 166.642 0.818912H155.549V24.6336H166.667ZM161.213 20.1115V5.34099H166.389C171.233 5.34099 174.401 8.16503 174.401 12.7232C174.401 17.2814 171.208 20.1115 166.389 20.1115H161.213ZM189.943 20.2139V14.6983H201.257V10.411H189.943V5.23863H202.748V0.818912H184.335V24.6336H203.211V20.2139H189.943Z" fill="white"/>
</svg>
