<svg width="9" height="18" viewBox="0 0 9 18" fill="none" xmlns="http://www.w3.org/2000/svg">
<path d="M8.65496 1.9199L1.75296 9.0004L8.65496 16.0809C8.77853 16.2074 8.8477 16.3772 8.8477 16.5541C8.8477 16.7309 8.77853 16.9007 8.65496 17.0272C8.59495 17.0885 8.52331 17.1372 8.44425 17.1704C8.36519 17.2036 8.2803 17.2207 8.19455 17.2207C8.10879 17.2207 8.0239 17.2036 7.94484 17.1704C7.86578 17.1372 7.79415 17.0885 7.73413 17.0272L0.390129 9.49482C0.261192 9.36254 0.189031 9.18512 0.189031 9.0004C0.189031 8.81568 0.261192 8.63826 0.390129 8.50598L7.73271 0.973568C7.79277 0.91188 7.86458 0.862852 7.94391 0.829374C8.02323 0.795897 8.10845 0.778648 8.19455 0.778648C8.28064 0.778648 8.36587 0.795897 8.44519 0.829374C8.52451 0.862852 8.59632 0.91188 8.65638 0.973568C8.77994 1.10007 8.84912 1.2699 8.84912 1.44673C8.84912 1.62357 8.77994 1.7934 8.65638 1.9199H8.65496Z" fill="#5E5E5E"/>
</svg>
