<svg width="150" height="20" viewBox="0 0 150 20" fill="none" xmlns="http://www.w3.org/2000/svg">
<path fill-rule="evenodd" clip-rule="evenodd" d="M30.1547 17.9438L24.605 5.34344L19.1281 17.9438H14.6293L22.3942 0.303301H26.5064L34.2942 17.9438H30.1547Z" fill="#1C1C1C"/>
<path fill-rule="evenodd" clip-rule="evenodd" d="M47.0629 14.0143C46.0666 14.5324 44.9516 14.7918 43.8241 14.7681C40.3806 14.7681 37.9924 12.4264 37.9924 9.12578C37.9924 5.82516 40.3806 3.47904 43.8787 3.47904C44.7546 3.46355 45.6235 3.63321 46.4265 3.97648C47.2295 4.31975 47.9477 4.82857 48.5322 5.46833L51.2024 3.05085C49.4556 1.05709 46.8537 0 43.6694 0C37.9378 0 33.7756 3.80464 33.7756 9.12578C33.7756 14.4469 37.9378 18.2471 43.5967 18.2471C46.2014 18.2714 48.7478 17.4912 50.8749 16.0169V8.84478H47.0675L47.0629 14.0143Z" fill="#1C1C1C"/>
<path fill-rule="evenodd" clip-rule="evenodd" d="M15.5254 0.303301L9.97574 12.9037L4.49886 0.303301H0L7.76497 17.9438H11.8772L19.6649 0.303301H15.5254Z" fill="#1C1C1C"/>
<path fill-rule="evenodd" clip-rule="evenodd" d="M27.9939 20H21.1615L24.6005 12.19L27.9939 20Z" fill="#1C1C1C"/>
<path fill-rule="evenodd" clip-rule="evenodd" d="M64.094 18.2471H68.2563V3.93399H74.0152V0.606601H58.3351V3.93399H64.094V18.2471ZM92.188 18.2471L88.1531 12.5781C89.2833 12.1406 90.2467 11.3694 90.9101 10.3713C91.5735 9.37319 91.9041 8.19755 91.8559 7.00714C91.8559 3.05085 88.8491 0.606601 84.0409 0.606601H76.2532V18.2471H80.4155V13.3408H84.2456L87.7165 18.2471H92.188ZM87.6391 7.00714C87.6391 8.92061 86.3518 10.0803 83.809 10.0803H80.4155V3.93399H83.809C86.3518 3.93399 87.6391 5.0669 87.6391 7.00714ZM108.587 18.2471H112.958L104.911 0.606601H100.817L92.7976 18.2471H97.0644L98.6611 14.4692H107.013L108.605 18.2471H108.587ZM99.9757 11.3693L102.832 4.61195L105.685 11.3693H99.9757ZM123.025 18.2471C128.911 18.2471 132.951 14.7681 132.951 9.42462C132.951 4.08118 128.893 0.606601 123.007 0.606601H114.819V18.2471H123.025ZM118.999 14.8974V3.95629H122.82C126.396 3.95629 128.734 6.04817 128.734 9.42462C128.734 12.8011 126.378 14.8974 122.82 14.8974H118.999ZM140.206 14.9732V10.8876H148.558V7.71186H140.206V3.88046H149.659V0.606601H136.067V18.2471H150V14.9732H140.206Z" fill="#1C1C1C"/>
</svg>
