<svg width="135" height="18" viewBox="0 0 135 18" fill="none" xmlns="http://www.w3.org/2000/svg">
<path fill-rule="evenodd" clip-rule="evenodd" d="M27.1392 16.1494L22.1445 4.8091L17.2153 16.1494H13.1663L20.1548 0.272971H23.8558L30.8647 16.1494H27.1392Z" fill="#1C1C1C"/>
<path fill-rule="evenodd" clip-rule="evenodd" d="M42.3566 12.6128C41.4599 13.0791 40.4565 13.3127 39.4417 13.2913C36.3425 13.2913 34.1932 11.1838 34.1932 8.2132C34.1932 5.24264 36.3425 3.13113 39.4908 3.13113C40.2791 3.1172 41.0612 3.26989 41.7839 3.57883C42.5066 3.88777 43.1529 4.34571 43.679 4.9215L46.0822 2.74576C44.5101 0.951383 42.1683 0 39.3025 0C34.144 0 30.398 3.42417 30.398 8.2132C30.398 13.0022 34.144 16.4224 39.237 16.4224C41.5812 16.4443 43.873 15.7421 45.7874 14.4153V7.9603H42.3607L42.3566 12.6128Z" fill="#1C1C1C"/>
<path fill-rule="evenodd" clip-rule="evenodd" d="M13.9729 0.272971L8.97817 11.6133L4.04898 0.272971H0L6.98848 16.1494H10.6895L17.6984 0.272971H13.9729Z" fill="#1C1C1C"/>
<path fill-rule="evenodd" clip-rule="evenodd" d="M25.1945 18H19.0453L22.1404 10.971L25.1945 18Z" fill="#1C1C1C"/>
<path fill-rule="evenodd" clip-rule="evenodd" d="M57.6846 16.4224H61.4306V3.54059H66.6136V0.545941H52.5016V3.54059H57.6846V16.4224ZM82.9692 16.4224L79.3378 11.3203C80.3549 10.9265 81.2221 10.2324 81.8191 9.33416C82.4162 8.43587 82.7136 7.3778 82.6703 6.30642C82.6703 2.74576 79.9642 0.545941 75.6368 0.545941H68.6279V16.4224H72.3739V12.0067H75.8211L78.9448 16.4224H82.9692ZM78.8752 6.30642C78.8752 8.02855 77.7166 9.07226 75.4281 9.07226H72.3739V3.54059H75.4281C77.7166 3.54059 78.8752 4.56021 78.8752 6.30642ZM97.7281 16.4224H101.662L94.4202 0.545941H90.7356L83.5178 16.4224H87.358L88.795 13.0223H96.3116L97.7445 16.4224H97.7281ZM89.9782 10.2324L92.5492 4.15076L95.1161 10.2324H89.9782ZM110.723 16.4224C116.02 16.4224 119.656 13.2913 119.656 8.48216C119.656 3.67306 116.004 0.545941 110.706 0.545941H103.337V16.4224H110.723ZM107.099 13.4077V3.56066H110.538C113.756 3.56066 115.86 5.44335 115.86 8.48216C115.86 11.521 113.74 13.4077 110.538 13.4077H107.099ZM126.186 13.4759V9.79884H133.702V6.94068H126.186V3.49242H134.693V0.545941H122.46V16.4224H135V13.4759H126.186Z" fill="#1C1C1C"/>
</svg>
