<svg width="14" height="9" viewBox="0 0 14 9" fill="none" xmlns="http://www.w3.org/2000/svg">
<path d="M8.15193 1.22553C8.0824 1.16074 8.02662 1.0826 7.98794 0.995785C7.94926 0.90897 7.92846 0.815252 7.92678 0.720224C7.92511 0.625196 7.94259 0.530803 7.97818 0.442677C8.01378 0.354551 8.06676 0.274497 8.13397 0.207292C8.20117 0.140086 8.28122 0.0871051 8.36935 0.0515096C8.45748 0.0159141 8.55187 -0.00156652 8.6469 0.000110145C8.74192 0.00178681 8.83564 0.0225863 8.92246 0.0612685C9.00927 0.0999506 9.08741 0.155722 9.1522 0.225257L12.9268 3.99987C13.0593 4.13257 13.1338 4.31245 13.1338 4.5C13.1338 4.68755 13.0593 4.86743 12.9268 5.00014L9.1522 8.77474C9.08741 8.84428 9.00927 8.90005 8.92246 8.93873C8.83564 8.97741 8.74192 8.99821 8.6469 8.99989C8.55187 9.00157 8.45748 8.98409 8.36935 8.94849C8.28122 8.9129 8.20117 8.85991 8.13397 8.79271C8.06676 8.7255 8.01378 8.64545 7.97818 8.55732C7.94259 8.4692 7.92511 8.37481 7.92678 8.27978C7.92846 8.18475 7.94926 8.09103 7.98794 8.00422C8.02662 7.9174 8.0824 7.83927 8.15193 7.77447L10.7187 5.20774L1.57468 5.20774C1.38697 5.20774 1.20696 5.13317 1.07423 5.00045C0.941503 4.86772 0.866938 4.6877 0.866938 4.5C0.866938 4.3123 0.941503 4.13228 1.07423 3.99955C1.20696 3.86683 1.38697 3.79226 1.57468 3.79226L10.7187 3.79226L8.15193 1.22553Z" fill="#2168EA"/>
</svg>
