<svg width="15" height="11" viewBox="0 0 15 11" fill="none" xmlns="http://www.w3.org/2000/svg">
<path d="M6.09285 1.49787C6.17783 1.41868 6.246 1.32318 6.29328 1.21707C6.34055 1.11096 6.36598 0.99642 6.36803 0.880274C6.37008 0.764128 6.34871 0.648759 6.3052 0.54105C6.2617 0.43334 6.19694 0.335497 6.1148 0.253357C6.03266 0.171216 5.93482 0.106462 5.82711 0.0629561C5.7194 0.0194505 5.60403 -0.00191464 5.48789 0.000134622C5.37174 0.00218388 5.2572 0.0276055 5.15109 0.0748837C5.04498 0.122162 4.94948 0.190327 4.87029 0.275314L0.256882 4.88872C0.0948935 5.05091 0.00390625 5.27077 0.00390625 5.5C0.00390625 5.72923 0.0948935 5.94909 0.256882 6.11128L4.87029 10.7247C4.94948 10.8097 5.04498 10.8778 5.15109 10.9251C5.2572 10.9724 5.37174 10.9978 5.48789 10.9999C5.60403 11.0019 5.7194 10.9805 5.82711 10.937C5.93482 10.8935 6.03266 10.8288 6.1148 10.7466C6.19694 10.6645 6.2617 10.5667 6.3052 10.459C6.34871 10.3512 6.37008 10.2359 6.36803 10.1197C6.36598 10.0036 6.34055 9.88904 6.29328 9.78293C6.246 9.67682 6.17783 9.58132 6.09285 9.50213L2.95573 6.36501L14.1317 6.36501C14.3611 6.36501 14.5811 6.27388 14.7434 6.11166C14.9056 5.94944 14.9967 5.72942 14.9967 5.5C14.9967 5.27058 14.9056 5.05057 14.7434 4.88834C14.5811 4.72612 14.3611 4.63499 14.1317 4.63499L2.95573 4.63499L6.09285 1.49787Z" fill="#2168EA"/>
</svg>
