<svg width="9" height="18" viewBox="0 0 9 18" fill="none" xmlns="http://www.w3.org/2000/svg">
<path d="M0.345037 1.9199L7.24704 9.0004L0.345037 16.0809C0.221472 16.2074 0.152295 16.3772 0.152295 16.5541C0.152295 16.7309 0.221472 16.9007 0.345037 17.0272C0.405053 17.0885 0.476688 17.1372 0.555747 17.1704C0.634806 17.2036 0.719699 17.2207 0.805454 17.2207C0.891209 17.2207 0.976101 17.2036 1.05516 17.1704C1.13422 17.1372 1.20585 17.0885 1.26587 17.0272L8.60987 9.49482C8.73881 9.36254 8.81097 9.18512 8.81097 9.0004C8.81097 8.81568 8.73881 8.63826 8.60987 8.50598L1.26729 0.973568C1.20723 0.91188 1.13542 0.862852 1.05609 0.829374C0.976774 0.795897 0.89155 0.778648 0.805454 0.778648C0.719358 0.778648 0.634133 0.795897 0.554812 0.829374C0.475492 0.862852 0.403681 0.91188 0.34362 0.973568C0.220055 1.10007 0.150879 1.2699 0.150879 1.44673C0.150879 1.62357 0.220055 1.7934 0.34362 1.9199H0.345037Z" fill="#5E5E5E"/>
</svg>
